Coordinates
version=1
nRows=19
nColumns=36
inDegrees=yes

Units are S.I. units (second, meters, Newtons, ...)
If the header above contains a line with 'inDegrees', this indicates whether rotational values are in degrees (yes) or radians (no).

endheader
time	pelvis_tilt	pelvis_list	pelvis_rotation	pelvis_tx	pelvis_ty	pelvis_tz	hip_flexion_r	hip_adduction_r	hip_rotation_r	knee_angle_r	knee_angle_r_beta	ankle_angle_r	subtalar_angle_r	mtp_angle_r	hip_flexion_l	hip_adduction_l	hip_rotation_l	knee_angle_l	knee_angle_l_beta	ankle_angle_l	subtalar_angle_l	mtp_angle_l	lumbar_extension	lumbar_bending	lumbar_rotation	arm_flex_r	arm_add_r	arm_rot_r	elbow_flex_r	pro_sup_r	arm_flex_l	arm_add_l	arm_rot_l	elbow_flex_l	pro_sup_l
      0.80000000	     -4.86426309	     -2.48781418	     -6.95155662	      0.74001696	      1.01334629	     -0.28351078	     -3.94160748	     -0.91971616	     -8.49198834	     37.53293216	      0.65507324	     -6.47886601	     -6.39101017	     -7.00566043	     27.35790448	    -10.74974648	    -14.65074266	     28.92433788	      0.50482493	      7.06070292	     10.15324557	     -7.00566043	     -5.92176455	    -23.79305449	     -0.61208735	     -6.22848092	     -8.19359828	     10.41906001	     46.43078703	    109.58245949	     -4.81022375	    -14.66114859	    -26.66104627	     37.66604798	    108.27689337
      0.81000000	     -4.93963078	     -2.40846504	     -7.51833754	      0.75004351	      1.01490724	     -0.28465509	     -2.23978238	     -1.59409584	     -8.58604782	     40.75051211	      0.71123061	     -8.11784312	     -7.75213046	     -7.01353883	     26.58939751	    -10.68303582	    -14.99914203	     28.86466468	      0.50378344	      7.56172548	      9.97702353	     -7.01353883	     -5.67845373	    -24.06483413	     -0.82466937	     -6.22671736	     -8.37137170	     10.57844804	     46.28808620	    109.54031560	     -4.74328483	    -14.82150178	    -26.67833975	     38.06482303	    108.40626958
      0.82000000	     -5.00559089	     -2.34741928	     -8.02668524	      0.75986720	      1.01648229	     -0.28573773	     -0.55787562	     -2.19065224	     -8.68771962	     43.84003750	      0.76515300	     -9.54122864	     -9.33446144	     -7.02361011	     25.82745859	    -10.62515862	    -15.37501868	     28.78384278	      0.50237283	      8.01072158	      9.84966844	     -7.02361011	     -5.48344264	    -24.29912394	     -1.08534598	     -6.21974259	     -8.48434577	     10.49831968	     46.12897012	    109.48652287	     -4.63987062	    -15.03276880	    -26.61182831	     38.47312221	    108.55336504
      0.83000000	     -4.99250391	     -2.26525732	     -8.47244930	      0.76952022	      1.01815377	     -0.28684165	      1.02217882	     -2.80667107	     -8.86774793	     46.78327170	      0.81652213	    -10.36521854	    -10.74688254	     -7.03017687	     24.96256768	    -10.50968034	    -15.78851645	     28.61855157	      0.49948795	      8.57326987	      9.85673470	     -7.03017687	     -5.42861834	    -24.53316385	     -1.43284448	     -6.22250876	     -8.53790971	     10.21938009	     46.02846862	    109.45028012	     -4.50036877	    -15.29222479	    -26.45159956	     38.85790562	    108.65723419
      0.84000000	     -4.97597884	     -2.22550746	     -8.86874728	      0.77889691	      1.01982802	     -0.28785763	      2.57943868	     -3.30481701	     -9.02315731	     49.54144318	      0.86466130	    -10.74559815	    -12.35392729	     -7.03550067	     24.11592242	    -10.43581208	    -16.20043311	     28.43768775	      0.49633128	      9.03851547	      9.93286145	     -7.03550067	     -5.41454901	    -24.70701016	     -1.83046248	     -6.19320384	     -8.50834809	      9.78789044	     45.88449847	    109.41061806	     -4.31727241	    -15.58751273	    -26.24294453	     39.24477985	    108.74491240
      0.85000000	     -5.08642756	     -2.27675307	     -9.28312894	      0.78800802	      1.02143872	     -0.28864157	      4.26360683	     -3.56668949	     -9.07263091	     52.05917685	      0.90860404	    -11.29348417	    -14.52300441	     -7.04796637	     23.37438403	    -10.48233178	    -16.56061313	     28.16872596	      0.49163701	      9.32500769	     10.11210287	     -7.04796637	     -5.27544629	    -24.77780758	     -2.05828338	     -6.27244995	     -8.39974845	      8.94148994	     45.73618688	    109.36896113	     -4.04234311	    -15.94702926	    -25.87741295	     39.64704391	    108.85840087
      0.86000000	     -5.09129485	     -2.32282396	     -9.60084252	      0.79705667	      1.02320339	     -0.28951638	      5.78081726	     -3.81000960	     -9.18059243	     54.34291451	      0.94846278	    -11.12094723	    -16.39785823	     -7.06059983	     22.51783652	    -10.47862729	    -16.97430461	     27.85528821	      0.48616649	      9.72711982	     10.39654430	     -7.06059983	     -5.30511100	    -24.83232630	     -2.43531079	     -6.33926674	     -8.23021299	      8.12306326	     45.62091013	    109.33660281	     -3.72444754	    -16.30833764	    -25.45305395	     39.94660902	    108.93189757
      0.87000000	     -4.95308616	     -2.61091339	     -9.80803547	      0.80591141	      1.02526519	     -0.29043719	      7.01284416	     -3.74129808	     -9.33930870	     56.25016269	      0.98175054	    -10.51955923	    -17.54598202	     -7.06291148	     21.52677026	    -10.66399011	    -17.17823949	     27.55438572	      0.48091475	      9.98668774	     10.55018392	     -7.06291148	     -5.64218550	    -24.62335054	     -3.06345678	     -6.19845177	     -8.19444176	      7.75358453	     45.46660954	    109.29643760	     -3.34946110	    -16.63614177	    -25.28292702	     40.14066393	    108.96411274
      0.88000000	     -5.13928241	     -2.48360756	    -10.14107060	      0.81483795	      1.02678227	     -0.29106765	      8.75676451	     -4.01479435	     -9.34126914	     58.12677557	      1.01450362	     -9.93682406	    -19.43433833	     -7.07103356	     20.77952018	    -10.49187284	    -17.72338652	     27.01286759	      0.47146348	     10.36792114	     11.11040582	     -7.07103356	     -5.37301173	    -24.85984547	     -3.33517329	     -6.40013095	     -7.85516366	      6.76456167	     45.20660187	    109.19402749	     -3.09800420	    -17.11301396	    -24.75188812	     40.58308685	    109.03688054
      0.89000000	     -5.13282097	     -2.64392648	    -10.33915927	      0.82357849	      1.02861826	     -0.29180023	     10.11723335	     -3.93594682	     -9.44788575	     59.56636477	      1.03962919	     -9.20273124	    -20.71809626	     -7.07598614	     19.88752145	    -10.55530209	    -18.05927573	     26.57558991	      0.46383154	     10.64071844	     11.42324048	     -7.07598614	     -5.47440176	    -24.77336639	     -3.86851570	     -6.36891059	     -7.70854173	      6.12809945	     45.05703542	    109.12066848	     -2.70300161	    -17.60371624	    -24.39400327	     40.71533081	    109.07176414
      0.90000000	     -5.20533832	     -2.75083644	    -10.53353702	      0.83225420	      1.03033865	     -0.29247724	     11.57496116	     -3.80553369	     -9.40819748	     60.78903405	      1.06096879	     -8.81792690	    -21.59418604	     -7.08522789	     19.06385771	    -10.55935847	    -18.38243929	     26.07016758	      0.45501026	     10.83646973	     11.91194727	     -7.08522789	     -5.46171879	    -24.73265583	     -4.19996051	     -6.52645837	     -7.47014067	      5.22761533	     44.92076361	    109.01230243	     -2.18753812	    -18.13676203	    -23.68324637	     40.82943462	    109.12797714
      0.91000000	     -5.21143215	     -2.99267420	    -10.60664740	      0.84087342	      1.03218073	     -0.29324527	     12.83120863	     -3.46984283	     -9.42804981	     61.65170164	      1.07602518	     -8.36015660	    -22.11259563	     -7.08784523	     18.19667261	    -10.64020279	    -18.53354740	     25.56055687	      0.44611588	     10.97393779	     12.09961013	     -7.08784523	     -5.60976003	    -24.53616652	     -4.83395738	     -6.51500156	     -7.36433255	      4.90497222	     44.80146704	    108.96611780	     -1.73387664	    -18.57401960	    -23.41978161	     40.92571716	    109.16077206
      0.92000000	     -5.29706335	     -3.02413312	    -10.70668800	      0.84954592	      1.03384513	     -0.29400550	     14.21688162	     -3.33242725	     -9.38358158	     62.35643575	      1.08832511	     -7.74921638	    -22.08581702	     -7.10557697	     17.38404172	    -10.48206432	    -18.77250266	     24.92557427	      0.43503334	     11.06738414	     12.45245765	     -7.10557697	     -5.58839493	    -24.52891344	     -4.99965035	     -6.87626312	     -7.06003974	      3.79007109	     44.80477742	    108.82056573	     -0.97646414	    -19.27274162	    -21.96631798	     40.72782555	    109.26295325
      0.93000000	     -5.32396817	     -3.11826673	    -10.68880706	      0.85814996	      1.03551612	     -0.29487611	     15.45463872	     -3.09238009	     -9.39378332	     62.77541456	      1.09563767	     -7.39323341	    -22.05436804	     -7.11213435	     16.55054783	    -10.31218000	    -18.76399994	     24.30130512	      0.42413779	     11.15334645	     12.60679859	     -7.11213435	     -5.70261266	    -24.47036080	     -5.58817849	     -6.92965542	     -6.94355281	      3.51361136	     44.61625655	    108.77560154	     -0.46969648	    -19.78566509	    -21.53498452	     40.91626431	    109.31136547
      0.94000000	     -5.37407007	     -3.33598483	    -10.60034155	      0.86668592	      1.03713219	     -0.29567162	     16.61294860	     -2.63768330	     -9.44315756	     62.87177036	      1.09731940	     -7.32556300	    -21.99817323	     -7.11278053	     15.87070507	    -10.35167600	    -18.89780576	     23.94045938	      0.41783984	     11.21124584	     12.61013659	     -7.11278053	     -5.87252080	    -24.28060592	     -6.18420074	     -7.03271337	     -6.86758581	      3.49086929	     44.55488664	    108.76794643	      0.14670769	    -20.17002185	    -21.47265001	     41.13306203	    109.33678026
      0.95000000	     -5.34234778	     -3.32777863	    -10.57047100	      0.87533313	      1.03876292	     -0.29665661	     17.75316510	     -2.46260272	     -9.32191908	     62.93103094	      1.09835369	     -6.14122046	    -20.55185518	     -7.12578426	     14.86517263	     -9.89039508	    -18.46213926	     22.96794744	      0.40086631	     11.04628240	     12.31744586	     -7.12578426	     -5.99980755	    -24.27345925	     -6.57980412	     -7.19998155	     -6.73945466	      3.03641856	     44.48645343	    108.70126855	      0.72741834	    -20.84475930	    -20.09143351	     41.19697696	    109.51725514
      0.96000000	     -5.40259481	     -3.44434853	    -10.45803359	      0.88373862	      1.04008594	     -0.29743869	     18.90276212	     -2.03784319	     -9.28320375	     62.67372351	      1.09386283	     -6.09774490	    -20.43906208	     -7.12630537	     14.27527599	     -9.81047066	    -18.56477232	     22.68656605	      0.39595527	     11.11480440	     12.31066968	     -7.12630537	     -6.15383186	    -24.14521528	     -7.12856037	     -7.30660069	     -6.71190393	      3.03509689	     44.44804362	    108.69876508	      1.40295209	    -21.20757894	    -20.06225550	     41.45541775	    109.54172151
      0.97000000	     -5.44973724	     -3.63471568	    -10.39448102	      0.89241541	      1.04148820	     -0.29813048	     19.93210219	     -1.47128933	     -9.13801322	     62.13557862	      1.08447043	     -5.76385208	    -19.60766642	     -7.12945568	     13.36430918	     -9.60621053	    -17.98105314	     21.79054755	      0.38031680	     11.17833144	     12.25479069	     -7.12945568	     -6.21584508	    -23.90367993	     -7.48835251	     -7.46997445	     -6.70465132	      2.97353314	     44.41689251	    108.69396459	      1.93618876	    -21.59774238	    -19.55559022	     41.91435163	    109.65255787
      0.98000000	     -5.49696902	     -3.65473693	    -10.29145977	      0.90062234	      1.04250310	     -0.29886998	     21.07684219	     -1.10670437	     -9.03880390	     61.60762591	      1.07525592	     -5.64181433	    -19.45012178	     -7.12989599	     12.82237351	     -9.42649604	    -18.09621703	     21.56939229	      0.37645691	     11.23759134	     12.19730853	     -7.12989599	     -6.40669893	    -23.83646058	     -8.00364776	     -7.52297920	     -6.68417962	      2.98500018	     44.40914682	    108.69588015	      2.64296641	    -21.94429011	    -19.49663807	     42.19392823	    109.68406337
